<svg xmlns="http://www.w3.org/2000/svg" viewBox="0 0 12.61 11.53"><defs><style>.cls-1{fill:#f68c1f;stroke:#f68c1f;stroke-miterlimit:10;stroke-width:0.25px;}</style></defs><title>Asset 6</title><g id="Layer_2" data-name="Layer 2"><g id="Layer_1-2" data-name="Layer 1"><path class="cls-1" d="M.12,6.26v-1H1.44a2.77,2.77,0,0,0,.64-.07A.71.71,0,0,0,2.45,5a.76.76,0,0,0,.18-.37,3.13,3.13,0,0,0,0-.55l-.13-2a2,2,0,0,1,.13-.84A1.45,1.45,0,0,1,3.08.65,2,2,0,0,1,3.79.26a3.13,3.13,0,0,1,1-.14h.54v1H4.75a1.27,1.27,0,0,0-.87.26.94.94,0,0,0-.28.78l.13,2a2,2,0,0,1-.06.61,1.69,1.69,0,0,1-.26.52A1.16,1.16,0,0,1,3,5.58a1.53,1.53,0,0,1-.62.15v.06A1.62,1.62,0,0,1,3,5.94a1.18,1.18,0,0,1,.43.37,1.69,1.69,0,0,1,.26.52,2.18,2.18,0,0,1,.06.63l-.13,2a.93.93,0,0,0,.28.78,1.27,1.27,0,0,0,.87.25h.54v1H4.75a3.14,3.14,0,0,1-1-.13,1.81,1.81,0,0,1-.71-.39,1.45,1.45,0,0,1-.43-.63,2,2,0,0,1-.13-.84l.13-1.95a3.24,3.24,0,0,0,0-.56.76.76,0,0,0-.18-.37.88.88,0,0,0-.37-.21,2.72,2.72,0,0,0-.64-.06Z"/><path class="cls-1" d="M7.32,11.4v-1h.54a1.27,1.27,0,0,0,.87-.25A.9.9,0,0,0,9,9.41l-.12-2A2.43,2.43,0,0,1,9,6.83a1.48,1.48,0,0,1,.25-.52A1.16,1.16,0,0,1,9.64,6a1.49,1.49,0,0,1,.62-.15V5.75a1.39,1.39,0,0,1-.63-.15,1.17,1.17,0,0,1-.43-.36A1.44,1.44,0,0,1,9,4.71a2.59,2.59,0,0,1-.07-.63l.12-2a.91.91,0,0,0-.27-.78,1.27,1.27,0,0,0-.87-.26H7.32v-1h.54a3.18,3.18,0,0,1,1,.14,2,2,0,0,1,.71.39,1.54,1.54,0,0,1,.43.63,1.89,1.89,0,0,1,.12.84l-.12,2a3.15,3.15,0,0,0,0,.56.67.67,0,0,0,.17.37.74.74,0,0,0,.37.21,2.61,2.61,0,0,0,.63.07h1.32v1H11.16a2.8,2.8,0,0,0-.63.06.68.68,0,0,0-.54.58,3,3,0,0,0,0,.55l.12,2a1.89,1.89,0,0,1-.12.84,1.54,1.54,0,0,1-.43.63,1.81,1.81,0,0,1-.71.39,3.19,3.19,0,0,1-1,.13Z"/></g></g></svg>